<svg xmlns="http://www.w3.org/2000/svg" width="183" height="69" fill="none"><ellipse cx="70.854" cy="63.761" fill="#F8D24E" rx="4.005" ry="3.988"/><ellipse cx="78.865" cy="58.776" fill="#F8D24E" rx="4.005" ry="3.988"/><ellipse cx="88.877" cy="52.795" fill="#F8D24E" rx="4.005" ry="3.988"/><ellipse cx="96.888" cy="47.81" fill="#F8D24E" rx="4.005" ry="3.988"/><ellipse cx="91.881" cy="61.767" fill="#F8D24E" rx="4.005" ry="3.988"/><ellipse cx="99.892" cy="56.783" fill="#F8D24E" rx="4.005" ry="3.988"/><ellipse cx="109.905" cy="50.801" fill="#F8D24E" rx="4.005" ry="3.988"/><ellipse cx="117.915" cy="45.816" fill="#F8D24E" rx="4.005" ry="3.988"/><ellipse cx="109.905" cy="59.773" fill="#F8D24E" rx="4.005" ry="3.988"/><ellipse cx="117.915" cy="54.788" fill="#F8D24E" rx="4.005" ry="3.988"/><ellipse cx="127.928" cy="48.806" fill="#F8D24E" rx="4.005" ry="3.988"/><ellipse cx="135.939" cy="43.822" fill="#F8D24E" rx="4.005" ry="3.988"/><ellipse cx="127.928" cy="56.783" fill="#F8D24E" rx="4.005" ry="3.988"/><ellipse cx="135.939" cy="51.798" fill="#F8D24E" rx="4.005" ry="3.988"/><ellipse cx="145.952" cy="45.816" fill="#F8D24E" rx="4.005" ry="3.988"/><ellipse cx="153.962" cy="40.831" fill="#F8D24E" rx="4.005" ry="3.988"/><ellipse cx="132.935" cy="63.761" fill="#F8D24E" rx="4.005" ry="3.988"/><ellipse cx="140.945" cy="58.776" fill="#F8D24E" rx="4.005" ry="3.988"/><ellipse cx="151.96" cy="64.758" fill="#F8D24E" rx="4.005" ry="3.988"/><ellipse cx="150.958" cy="52.795" fill="#F8D24E" rx="4.005" ry="3.988"/><ellipse cx="161.973" cy="58.776" fill="#F8D24E" rx="4.005" ry="3.988"/><ellipse cx="170.984" cy="64.758" fill="#F8D24E" rx="4.005" ry="3.988"/><ellipse cx="158.969" cy="47.81" fill="#F8D24E" rx="4.005" ry="3.988"/><ellipse cx="170.984" cy="53.792" fill="#F8D24E" rx="4.005" ry="3.988"/><ellipse cx="178.995" cy="59.774" fill="#F8D24E" rx="4.005" ry="3.988"/><ellipse cx="32.804" cy="21.888" fill="#F8D24E" rx="4.005" ry="3.988"/><ellipse cx="40.815" cy="16.903" fill="#F8D24E" rx="4.005" ry="3.988"/><ellipse cx="50.828" cy="10.921" fill="#F8D24E" rx="4.005" ry="3.988"/><ellipse cx="58.838" cy="5.937" fill="#F8D24E" rx="4.005" ry="3.988"/><ellipse cx="16.784" cy="20.891" fill="#F8D24E" rx="4.005" ry="3.988"/><ellipse cx="24.794" cy="15.906" fill="#F8D24E" rx="4.005" ry="3.988"/><ellipse cx="34.807" cy="9.924" fill="#F8D24E" rx="4.005" ry="3.988"/><ellipse cx="42.818" cy="4.94" fill="#F8D24E" rx="4.005" ry="3.988"/><ellipse cx="51.829" cy="63.761" fill="#F8D24E" rx="4.005" ry="3.988"/><ellipse cx="59.84" cy="58.776" fill="#F8D24E" rx="4.005" ry="3.988"/><ellipse cx="69.853" cy="52.795" fill="#F8D24E" rx="4.005" ry="3.988"/><ellipse cx="77.863" cy="47.81" fill="#F8D24E" rx="4.005" ry="3.988"/><ellipse cx="41.816" cy="60.77" fill="#F8D24E" rx="4.005" ry="3.988"/><ellipse cx="49.827" cy="55.785" fill="#F8D24E" rx="4.005" ry="3.988"/><ellipse cx="59.84" cy="49.804" fill="#F8D24E" rx="4.005" ry="3.988"/><ellipse cx="67.85" cy="44.819" fill="#F8D24E" rx="4.005" ry="3.988"/><ellipse cx="45.822" cy="46.813" fill="#F8D24E" rx="4.005" ry="3.988"/><ellipse cx="53.832" cy="41.828" fill="#F8D24E" rx="4.005" ry="3.988"/><ellipse cx="63.845" cy="35.846" fill="#F8D24E" rx="4.005" ry="3.988"/><ellipse cx="71.855" cy="30.861" fill="#F8D24E" rx="4.005" ry="3.988"/><ellipse cx="45.822" cy="23.882" fill="#F8D24E" rx="4.005" ry="3.988"/><ellipse cx="53.832" cy="18.897" fill="#F8D24E" rx="4.005" ry="3.988"/><ellipse cx="63.845" cy="12.915" fill="#F8D24E" rx="4.005" ry="3.988"/><ellipse cx="71.855" cy="7.931" fill="#F8D24E" rx="4.005" ry="3.988"/><ellipse cx="43.819" cy="36.843" fill="#F8D24E" rx="4.005" ry="3.988"/><ellipse cx="51.829" cy="31.858" fill="#F8D24E" rx="4.005" ry="3.988"/><ellipse cx="61.842" cy="25.876" fill="#F8D24E" rx="4.005" ry="3.988"/><ellipse cx="69.853" cy="20.891" fill="#F8D24E" rx="4.005" ry="3.988"/><ellipse cx="4.267" cy="17.9" fill="#F8D24E" rx="3.505" ry="3.988"/><ellipse cx="12.277" cy="12.915" fill="#F8D24E" rx="3.505" ry="3.988"/><ellipse cx="22.291" cy="6.933" fill="#F8D24E" rx="3.505" ry="3.988"/><path fill="#F8D24E" d="M21.29 21.888c1.935 0 3.504-1.785 3.504-3.988 0-2.202-1.57-3.988-3.505-3.988-1.935 0-3.504 1.786-3.504 3.988 0 2.203 1.569 3.988 3.504 3.988Z"/></svg>