<svg xmlns="http://www.w3.org/2000/svg" width="107" height="34" fill="none"><ellipse fill="#F8D24E" rx="2.643" ry="2.816" transform="matrix(.9869 -.16168 .14201 .98991 85.581 17.982)"/><ellipse fill="#F8D24E" rx="2.643" ry="2.816" transform="matrix(.9869 -.16168 .14201 .98991 90.7 13.34)"/><ellipse fill="#F8D24E" rx="2.643" ry="2.816" transform="matrix(.9869 -.16168 .14201 .98991 96.62 8.09)"/><ellipse fill="#F8D24E" rx="2.643" ry="2.816" transform="matrix(.9869 -.16168 .14201 .98991 102.173 3.377)"/><ellipse cx="2.72" cy="17.551" fill="#F8D24E" rx="2.72" ry="2.82"/><ellipse cx="8.611" cy="13.792" fill="#F8D24E" rx="2.72" ry="2.82"/><ellipse cx="15.413" cy="9.562" fill="#F8D24E" rx="2.72" ry="2.82"/><ellipse cx="21.758" cy="5.802" fill="#F8D24E" rx="2.72" ry="2.82"/><ellipse cx="5.44" cy="24.601" fill="#F8D24E" rx="2.72" ry="2.82"/><ellipse cx="11.333" cy="20.841" fill="#F8D24E" rx="2.72" ry="2.82"/><ellipse cx="18.134" cy="16.611" fill="#F8D24E" rx="2.72" ry="2.82"/><ellipse cx="24.479" cy="12.851" fill="#F8D24E" rx="2.72" ry="2.82"/><ellipse cx="12.238" cy="28.36" fill="#F8D24E" rx="2.72" ry="2.82"/><ellipse cx="18.132" cy="24.6" fill="#F8D24E" rx="2.72" ry="2.82"/><ellipse cx="24.931" cy="20.371" fill="#F8D24E" rx="2.72" ry="2.82"/><ellipse cx="31.276" cy="16.611" fill="#F8D24E" rx="2.72" ry="2.82"/><ellipse cx="19.943" cy="30.71" fill="#F8D24E" rx="2.72" ry="2.82"/><ellipse cx="25.836" cy="26.95" fill="#F8D24E" rx="2.72" ry="2.82"/><ellipse cx="32.638" cy="22.721" fill="#F8D24E" rx="2.72" ry="2.82"/><ellipse cx="38.981" cy="18.961" fill="#F8D24E" rx="2.72" ry="2.82"/><ellipse cx="29.917" cy="31.18" fill="#F8D24E" rx="2.72" ry="2.82"/><ellipse cx="35.81" cy="27.421" fill="#F8D24E" rx="2.72" ry="2.82"/><ellipse cx="42.61" cy="23.191" fill="#F8D24E" rx="2.72" ry="2.82"/><ellipse cx="48.955" cy="19.431" fill="#F8D24E" rx="2.72" ry="2.82"/><ellipse cx="41.704" cy="31.18" fill="#F8D24E" rx="2.72" ry="2.82"/><ellipse cx="47.596" cy="27.421" fill="#F8D24E" rx="2.72" ry="2.82"/><ellipse cx="54.396" cy="23.191" fill="#F8D24E" rx="2.72" ry="2.82"/><ellipse cx="60.742" cy="19.431" fill="#F8D24E" rx="2.72" ry="2.82"/><ellipse cx="51.674" cy="30.71" fill="#F8D24E" rx="2.72" ry="2.82"/><ellipse cx="57.566" cy="26.95" fill="#F8D24E" rx="2.72" ry="2.82"/><ellipse cx="64.367" cy="22.721" fill="#F8D24E" rx="2.72" ry="2.82"/><ellipse cx="70.712" cy="18.961" fill="#F8D24E" rx="2.72" ry="2.82"/><ellipse cx="63.006" cy="30.24" fill="#F8D24E" rx="2.72" ry="2.82"/><ellipse cx="68.898" cy="26.48" fill="#F8D24E" rx="2.72" ry="2.82"/><ellipse cx="75.699" cy="22.251" fill="#F8D24E" rx="2.72" ry="2.82"/><ellipse cx="82.044" cy="18.491" fill="#F8D24E" rx="2.72" ry="2.82"/><ellipse cx="73.432" cy="18.021" fill="#F8D24E" rx="2.72" ry="2.82"/><ellipse cx="79.324" cy="14.261" fill="#F8D24E" rx="2.72" ry="2.82"/><ellipse cx="86.124" cy="10.032" fill="#F8D24E" rx="2.72" ry="2.82"/><ellipse cx="92.47" cy="6.272" fill="#F8D24E" rx="2.72" ry="2.82"/></svg>