<svg xmlns="http://www.w3.org/2000/svg" width="127" height="50" fill="none"><ellipse cx="48.993" cy="46.276" fill="#F8D24E" rx="2.6" ry="2.779"/><ellipse cx="54.627" cy="42.571" fill="#F8D24E" rx="2.6" ry="2.779"/><ellipse cx="61.126" cy="38.403" fill="#F8D24E" rx="2.6" ry="2.779"/><ellipse cx="67.195" cy="34.698" fill="#F8D24E" rx="2.6" ry="2.779"/><ellipse cx="63.726" cy="44.423" fill="#F8D24E" rx="2.6" ry="2.779"/><ellipse cx="69.361" cy="40.718" fill="#F8D24E" rx="2.6" ry="2.779"/><ellipse cx="75.86" cy="36.55" fill="#F8D24E" rx="2.6" ry="2.779"/><ellipse cx="81.929" cy="32.846" fill="#F8D24E" rx="2.6" ry="2.779"/><ellipse cx="76.296" cy="43.034" fill="#F8D24E" rx="2.6" ry="2.779"/><ellipse cx="81.93" cy="39.329" fill="#F8D24E" rx="2.6" ry="2.779"/><ellipse cx="88.43" cy="35.161" fill="#F8D24E" rx="2.6" ry="2.779"/><ellipse cx="94.496" cy="31.457" fill="#F8D24E" rx="2.6" ry="2.779"/><ellipse cx="88.428" cy="41.182" fill="#F8D24E" rx="2.6" ry="2.779"/><ellipse cx="94.061" cy="37.477" fill="#F8D24E" rx="2.6" ry="2.779"/><ellipse cx="100.561" cy="33.309" fill="#F8D24E" rx="2.6" ry="2.779"/><ellipse cx="106.629" cy="29.604" fill="#F8D24E" rx="2.6" ry="2.779"/><ellipse cx="92.331" cy="46.276" fill="#F8D24E" rx="2.6" ry="2.779"/><ellipse cx="97.965" cy="42.571" fill="#F8D24E" rx="2.6" ry="2.779"/><ellipse cx="105.765" cy="46.739" fill="#F8D24E" rx="2.6" ry="2.779"/><ellipse cx="104.465" cy="38.403" fill="#F8D24E" rx="2.6" ry="2.779"/><ellipse cx="112.266" cy="42.571" fill="#F8D24E" rx="2.6" ry="2.779"/><ellipse cx="118.334" cy="46.739" fill="#F8D24E" rx="2.6" ry="2.779"/><ellipse cx="110.533" cy="34.698" fill="#F8D24E" rx="2.6" ry="2.779"/><ellipse cx="118.334" cy="38.865" fill="#F8D24E" rx="2.6" ry="2.779"/><ellipse cx="124.401" cy="43.034" fill="#F8D24E" rx="2.6" ry="2.779"/><ellipse cx="22.559" cy="15.711" fill="#F8D24E" rx="2.6" ry="2.779"/><ellipse cx="28.192" cy="12.006" fill="#F8D24E" rx="2.6" ry="2.779"/><ellipse cx="34.694" cy="7.838" fill="#F8D24E" rx="2.6" ry="2.779"/><ellipse cx="40.759" cy="4.133" fill="#F8D24E" rx="2.6" ry="2.779"/><ellipse cx="11.724" cy="15.247" fill="#F8D24E" rx="2.6" ry="2.779"/><ellipse cx="17.357" cy="11.542" fill="#F8D24E" rx="2.6" ry="2.779"/><ellipse cx="23.857" cy="7.375" fill="#F8D24E" rx="2.6" ry="2.779"/><ellipse cx="29.924" cy="3.67" fill="#F8D24E" rx="2.6" ry="2.779"/><ellipse cx="35.992" cy="46.276" fill="#F8D24E" rx="2.6" ry="2.779"/><ellipse cx="41.625" cy="42.571" fill="#F8D24E" rx="2.6" ry="2.779"/><ellipse cx="48.125" cy="38.403" fill="#F8D24E" rx="2.6" ry="2.779"/><ellipse cx="54.193" cy="34.698" fill="#F8D24E" rx="2.6" ry="2.779"/><ellipse cx="29.058" cy="43.498" fill="#F8D24E" rx="2.6" ry="2.779"/><ellipse cx="34.692" cy="39.793" fill="#F8D24E" rx="2.6" ry="2.779"/><ellipse cx="41.192" cy="35.624" fill="#F8D24E" rx="2.6" ry="2.779"/><ellipse cx="47.259" cy="31.92" fill="#F8D24E" rx="2.6" ry="2.779"/><ellipse cx="31.659" cy="33.772" fill="#F8D24E" rx="2.6" ry="2.779"/><ellipse cx="37.292" cy="30.067" fill="#F8D24E" rx="2.6" ry="2.779"/><ellipse cx="43.794" cy="25.899" fill="#F8D24E" rx="2.6" ry="2.779"/><ellipse cx="49.86" cy="22.194" fill="#F8D24E" rx="2.6" ry="2.779"/><ellipse cx="31.659" cy="17.563" fill="#F8D24E" rx="2.6" ry="2.779"/><ellipse cx="37.292" cy="13.858" fill="#F8D24E" rx="2.6" ry="2.779"/><ellipse cx="43.794" cy="9.69" fill="#F8D24E" rx="2.6" ry="2.779"/><ellipse cx="49.86" cy="5.985" fill="#F8D24E" rx="2.6" ry="2.779"/><ellipse cx="30.358" cy="26.363" fill="#F8D24E" rx="2.6" ry="2.779"/><ellipse cx="35.993" cy="22.657" fill="#F8D24E" rx="2.6" ry="2.779"/><ellipse cx="42.492" cy="18.49" fill="#F8D24E" rx="2.6" ry="2.779"/><ellipse cx="48.559" cy="14.785" fill="#F8D24E" rx="2.6" ry="2.779"/><ellipse cx="3.056" cy="12.932" fill="#F8D24E" rx="2.6" ry="2.779"/><ellipse cx="8.691" cy="9.227" fill="#F8D24E" rx="2.6" ry="2.779"/><ellipse cx="15.191" cy="5.059" fill="#F8D24E" rx="2.6" ry="2.779"/><path fill="#F8D24E" d="M14.757 15.71c1.437 0 2.6-1.244 2.6-2.778 0-1.535-1.163-2.779-2.6-2.779-1.436 0-2.6 1.244-2.6 2.779 0 1.534 1.164 2.778 2.6 2.778Z"/></svg>