<svg aria-hidden="true" style="position: absolute; width: 0; height: 0; overflow: hidden;" version="1.1" xmlns="http://www.w3.org/2000/svg" xmlns:xlink="http://www.w3.org/1999/xlink">
<defs>
<symbol id="icon-dots1-mobile" viewBox="0 0 101 32">
<path fill="#f8d24e" style="fill: var(--color1, #f8d24e)" d="M83.002 16.522c0.208 1.449-0.723 2.804-2.079 3.026s-2.623-0.772-2.831-2.221c-0.208-1.449 0.723-2.804 2.079-3.026s2.623 0.772 2.831 2.221z"></path>
<path fill="#f8d24e" style="fill: var(--color1, #f8d24e)" d="M87.82 12.153c0.208 1.449-0.723 2.804-2.079 3.026s-2.623-0.772-2.831-2.221c-0.208-1.449 0.723-2.804 2.079-3.026s2.623 0.772 2.831 2.221z"></path>
<path fill="#f8d24e" style="fill: var(--color1, #f8d24e)" d="M93.391 7.212c0.208 1.449-0.723 2.804-2.079 3.026s-2.623-0.772-2.831-2.221c-0.208-1.449 0.723-2.804 2.079-3.026s2.623 0.772 2.831 2.221z"></path>
<path fill="#f8d24e" style="fill: var(--color1, #f8d24e)" d="M98.618 2.776c0.208 1.449-0.723 2.804-2.079 3.026s-2.623-0.772-2.831-2.221c-0.208-1.449 0.723-2.804 2.079-3.026s2.623 0.772 2.831 2.221z"></path>
<path fill="#f8d24e" style="fill: var(--color1, #f8d24e)" d="M5.12 16.519c0 1.466-1.146 2.654-2.56 2.654s-2.56-1.188-2.56-2.654c0-1.466 1.146-2.654 2.56-2.654s2.56 1.188 2.56 2.654z"></path>
<path fill="#f8d24e" style="fill: var(--color1, #f8d24e)" d="M10.664 12.981c0 1.466-1.146 2.654-2.56 2.654s-2.56-1.188-2.56-2.654c0-1.466 1.146-2.654 2.56-2.654s2.56 1.188 2.56 2.654z"></path>
<path fill="#f8d24e" style="fill: var(--color1, #f8d24e)" d="M17.066 9c0 1.466-1.146 2.654-2.56 2.654s-2.56-1.188-2.56-2.654c0-1.466 1.146-2.654 2.56-2.654s2.56 1.188 2.56 2.654z"></path>
<path fill="#f8d24e" style="fill: var(--color1, #f8d24e)" d="M23.038 5.461c0 1.466-1.146 2.654-2.56 2.654s-2.56-1.188-2.56-2.654c0-1.466 1.146-2.654 2.56-2.654s2.56 1.188 2.56 2.654z"></path>
<path fill="#f8d24e" style="fill: var(--color1, #f8d24e)" d="M7.68 23.154c0 1.466-1.146 2.654-2.56 2.654s-2.56-1.188-2.56-2.654c0-1.466 1.146-2.654 2.56-2.654s2.56 1.188 2.56 2.654z"></path>
<path fill="#f8d24e" style="fill: var(--color1, #f8d24e)" d="M13.226 19.615c0 1.466-1.146 2.654-2.56 2.654s-2.56-1.188-2.56-2.654c0-1.466 1.146-2.654 2.56-2.654s2.56 1.188 2.56 2.654z"></path>
<path fill="#f8d24e" style="fill: var(--color1, #f8d24e)" d="M19.627 15.634c0 1.466-1.146 2.654-2.56 2.654s-2.56-1.188-2.56-2.654c0-1.466 1.146-2.654 2.56-2.654s2.56 1.188 2.56 2.654z"></path>
<path fill="#f8d24e" style="fill: var(--color1, #f8d24e)" d="M25.599 12.095c0 1.466-1.146 2.654-2.56 2.654s-2.56-1.188-2.56-2.654c0-1.466 1.146-2.654 2.56-2.654s2.56 1.188 2.56 2.654z"></path>
<path fill="#f8d24e" style="fill: var(--color1, #f8d24e)" d="M14.078 26.692c0 1.466-1.146 2.654-2.56 2.654s-2.56-1.188-2.56-2.654c0-1.466 1.146-2.654 2.56-2.654s2.56 1.188 2.56 2.654z"></path>
<path fill="#f8d24e" style="fill: var(--color1, #f8d24e)" d="M19.625 23.153c0 1.466-1.146 2.654-2.56 2.654s-2.56-1.188-2.56-2.654c0-1.466 1.146-2.654 2.56-2.654s2.56 1.188 2.56 2.654z"></path>
<path fill="#f8d24e" style="fill: var(--color1, #f8d24e)" d="M26.024 19.173c0 1.466-1.146 2.654-2.56 2.654s-2.56-1.188-2.56-2.654c0-1.466 1.146-2.654 2.56-2.654s2.56 1.188 2.56 2.654z"></path>
<path fill="#f8d24e" style="fill: var(--color1, #f8d24e)" d="M31.996 15.634c0 1.466-1.146 2.654-2.56 2.654s-2.56-1.188-2.56-2.654c0-1.466 1.146-2.654 2.56-2.654s2.56 1.188 2.56 2.654z"></path>
<path fill="#f8d24e" style="fill: var(--color1, #f8d24e)" d="M21.33 28.904c0 1.466-1.146 2.654-2.56 2.654s-2.56-1.188-2.56-2.654c0-1.466 1.146-2.654 2.56-2.654s2.56 1.188 2.56 2.654z"></path>
<path fill="#f8d24e" style="fill: var(--color1, #f8d24e)" d="M26.876 25.365c0 1.466-1.146 2.654-2.56 2.654s-2.56-1.188-2.56-2.654c0-1.466 1.146-2.654 2.56-2.654s2.56 1.188 2.56 2.654z"></path>
<path fill="#f8d24e" style="fill: var(--color1, #f8d24e)" d="M33.278 21.384c0 1.466-1.146 2.654-2.56 2.654s-2.56-1.188-2.56-2.654c0-1.466 1.146-2.654 2.56-2.654s2.56 1.188 2.56 2.654z"></path>
<path fill="#f8d24e" style="fill: var(--color1, #f8d24e)" d="M39.248 17.846c0 1.466-1.146 2.654-2.56 2.654s-2.56-1.188-2.56-2.654c0-1.466 1.146-2.654 2.56-2.654s2.56 1.188 2.56 2.654z"></path>
<path fill="#f8d24e" style="fill: var(--color1, #f8d24e)" d="M30.717 29.346c0 1.466-1.146 2.654-2.56 2.654s-2.56-1.188-2.56-2.654c0-1.466 1.146-2.654 2.56-2.654s2.56 1.188 2.56 2.654z"></path>
<path fill="#f8d24e" style="fill: var(--color1, #f8d24e)" d="M36.264 25.808c0 1.466-1.146 2.654-2.56 2.654s-2.56-1.188-2.56-2.654c0-1.466 1.146-2.654 2.56-2.654s2.56 1.188 2.56 2.654z"></path>
<path fill="#f8d24e" style="fill: var(--color1, #f8d24e)" d="M42.664 21.827c0 1.466-1.146 2.654-2.56 2.654s-2.56-1.188-2.56-2.654c0-1.466 1.146-2.654 2.56-2.654s2.56 1.188 2.56 2.654z"></path>
<path fill="#f8d24e" style="fill: var(--color1, #f8d24e)" d="M48.635 18.288c0 1.466-1.146 2.654-2.56 2.654s-2.56-1.188-2.56-2.654c0-1.466 1.146-2.654 2.56-2.654s2.56 1.188 2.56 2.654z"></path>
<path fill="#f8d24e" style="fill: var(--color1, #f8d24e)" d="M41.811 29.346c0 1.466-1.146 2.654-2.56 2.654s-2.56-1.188-2.56-2.654c0-1.466 1.146-2.654 2.56-2.654s2.56 1.188 2.56 2.654z"></path>
<path fill="#f8d24e" style="fill: var(--color1, #f8d24e)" d="M47.356 25.808c0 1.466-1.146 2.654-2.56 2.654s-2.56-1.188-2.56-2.654c0-1.466 1.146-2.654 2.56-2.654s2.56 1.188 2.56 2.654z"></path>
<path fill="#f8d24e" style="fill: var(--color1, #f8d24e)" d="M53.756 21.827c0 1.466-1.146 2.654-2.56 2.654s-2.56-1.188-2.56-2.654c0-1.466 1.146-2.654 2.56-2.654s2.56 1.188 2.56 2.654z"></path>
<path fill="#f8d24e" style="fill: var(--color1, #f8d24e)" d="M59.729 18.288c0 1.466-1.146 2.654-2.56 2.654s-2.56-1.188-2.56-2.654c0-1.466 1.146-2.654 2.56-2.654s2.56 1.188 2.56 2.654z"></path>
<path fill="#f8d24e" style="fill: var(--color1, #f8d24e)" d="M51.194 28.904c0 1.466-1.146 2.654-2.56 2.654s-2.56-1.188-2.56-2.654c0-1.466 1.146-2.654 2.56-2.654s2.56 1.188 2.56 2.654z"></path>
<path fill="#f8d24e" style="fill: var(--color1, #f8d24e)" d="M56.74 25.365c0 1.466-1.146 2.654-2.56 2.654s-2.56-1.188-2.56-2.654c0-1.466 1.146-2.654 2.56-2.654s2.56 1.188 2.56 2.654z"></path>
<path fill="#f8d24e" style="fill: var(--color1, #f8d24e)" d="M63.141 21.384c0 1.466-1.146 2.654-2.56 2.654s-2.56-1.188-2.56-2.654c0-1.466 1.146-2.654 2.56-2.654s2.56 1.188 2.56 2.654z"></path>
<path fill="#f8d24e" style="fill: var(--color1, #f8d24e)" d="M69.112 17.846c0 1.466-1.146 2.654-2.56 2.654s-2.56-1.188-2.56-2.654c0-1.466 1.146-2.654 2.56-2.654s2.56 1.188 2.56 2.654z"></path>
<path fill="#f8d24e" style="fill: var(--color1, #f8d24e)" d="M61.86 28.461c0 1.466-1.146 2.654-2.56 2.654s-2.56-1.188-2.56-2.654c0-1.466 1.146-2.654 2.56-2.654s2.56 1.188 2.56 2.654z"></path>
<path fill="#f8d24e" style="fill: var(--color1, #f8d24e)" d="M67.405 24.922c0 1.466-1.146 2.654-2.56 2.654s-2.56-1.188-2.56-2.654c0-1.466 1.146-2.654 2.56-2.654s2.56 1.188 2.56 2.654z"></path>
<path fill="#f8d24e" style="fill: var(--color1, #f8d24e)" d="M73.806 20.942c0 1.466-1.146 2.654-2.56 2.654s-2.56-1.188-2.56-2.654c0-1.466 1.146-2.654 2.56-2.654s2.56 1.188 2.56 2.654z"></path>
<path fill="#f8d24e" style="fill: var(--color1, #f8d24e)" d="M79.778 17.403c0 1.466-1.146 2.654-2.56 2.654s-2.56-1.188-2.56-2.654c0-1.466 1.146-2.654 2.56-2.654s2.56 1.188 2.56 2.654z"></path>
<path fill="#f8d24e" style="fill: var(--color1, #f8d24e)" d="M71.672 16.961c0 1.466-1.146 2.654-2.56 2.654s-2.56-1.188-2.56-2.654c0-1.466 1.146-2.654 2.56-2.654s2.56 1.188 2.56 2.654z"></path>
<path fill="#f8d24e" style="fill: var(--color1, #f8d24e)" d="M77.218 13.422c0 1.466-1.146 2.654-2.56 2.654s-2.56-1.188-2.56-2.654c0-1.466 1.146-2.654 2.56-2.654s2.56 1.188 2.56 2.654z"></path>
<path fill="#f8d24e" style="fill: var(--color1, #f8d24e)" d="M83.618 9.442c0 1.466-1.146 2.654-2.56 2.654s-2.56-1.188-2.56-2.654c0-1.466 1.146-2.654 2.56-2.654s2.56 1.188 2.56 2.654z"></path>
<path fill="#f8d24e" style="fill: var(--color1, #f8d24e)" d="M89.591 5.903c0 1.466-1.146 2.654-2.56 2.654s-2.56-1.188-2.56-2.654c0-1.466 1.146-2.654 2.56-2.654s2.56 1.188 2.56 2.654z"></path>
</symbol>
<symbol id="icon-dots1-tablet" viewBox="0 0 104 32">
<path fill="#f8d24e" style="fill: var(--color1, #f8d24e)" d="M7.539 26.353c0 2.079-1.688 3.765-3.769 3.765s-3.769-1.686-3.769-3.765c0-2.079 1.688-3.765 3.769-3.765s3.769 1.686 3.769 3.765z"></path>
<path fill="#f8d24e" style="fill: var(--color1, #f8d24e)" d="M15.078 21.647c0 2.079-1.688 3.765-3.769 3.765s-3.769-1.686-3.769-3.765c0-2.079 1.688-3.765 3.769-3.765s3.769 1.686 3.769 3.765z"></path>
<path fill="#f8d24e" style="fill: var(--color1, #f8d24e)" d="M24.503 16c0 2.079-1.688 3.765-3.769 3.765s-3.769-1.686-3.769-3.765c0-2.079 1.688-3.765 3.769-3.765s3.769 1.686 3.769 3.765z"></path>
<path fill="#f8d24e" style="fill: var(--color1, #f8d24e)" d="M32.041 11.294c0 2.079-1.688 3.765-3.769 3.765s-3.769-1.686-3.769-3.765c0-2.079 1.688-3.765 3.769-3.765s3.769 1.686 3.769 3.765z"></path>
<path fill="#f8d24e" style="fill: var(--color1, #f8d24e)" d="M52.775 28.235c0 2.079-1.688 3.765-3.769 3.765s-3.769-1.686-3.769-3.765c0-2.079 1.688-3.765 3.769-3.765s3.769 1.686 3.769 3.765z"></path>
<path fill="#f8d24e" style="fill: var(--color1, #f8d24e)" d="M60.313 23.529c0 2.079-1.688 3.765-3.769 3.765s-3.769-1.686-3.769-3.765c0-2.079 1.688-3.765 3.769-3.765s3.769 1.686 3.769 3.765z"></path>
<path fill="#f8d24e" style="fill: var(--color1, #f8d24e)" d="M69.737 17.882c0 2.079-1.688 3.765-3.769 3.765s-3.769-1.686-3.769-3.765c0-2.079 1.688-3.765 3.769-3.765s3.769 1.686 3.769 3.765z"></path>
<path fill="#f8d24e" style="fill: var(--color1, #f8d24e)" d="M77.277 13.176c0 2.079-1.688 3.765-3.769 3.765s-3.769-1.686-3.769-3.765c0-2.079 1.688-3.765 3.769-3.765s3.769 1.686 3.769 3.765z"></path>
<path fill="#f8d24e" style="fill: var(--color1, #f8d24e)" d="M69.738 25.412c0 2.079-1.477 3.765-3.299 3.765s-3.299-1.686-3.299-3.765c0-2.079 1.477-3.765 3.299-3.765s3.299 1.686 3.299 3.765z"></path>
<path fill="#f8d24e" style="fill: var(--color1, #f8d24e)" d="M77.277 20.706c0 2.079-1.477 3.765-3.299 3.765s-3.299-1.686-3.299-3.765c0-2.079 1.477-3.765 3.299-3.765s3.299 1.686 3.299 3.765z"></path>
<path fill="#f8d24e" style="fill: var(--color1, #f8d24e)" d="M85.759 16c0 2.079-1.477 3.765-3.299 3.765s-3.299-1.686-3.299-3.765c0-2.079 1.477-3.765 3.299-3.765s3.299 1.686 3.299 3.765z"></path>
<path fill="#f8d24e" style="fill: var(--color1, #f8d24e)" d="M94.241 11.294c0 2.079-1.477 3.765-3.299 3.765s-3.299-1.686-3.299-3.765c0-2.079 1.477-3.765 3.299-3.765s3.299 1.686 3.299 3.765z"></path>
<path fill="#f8d24e" style="fill: var(--color1, #f8d24e)" d="M103.665 3.765c0 2.079-1.477 3.765-3.299 3.765s-3.299-1.686-3.299-3.765c0-2.079 1.477-3.765 3.299-3.765s3.299 1.686 3.299 3.765z"></path>
<path fill="#f8d24e" style="fill: var(--color1, #f8d24e)" d="M83.875 7.529c0 2.079-1.477 3.765-3.299 3.765s-3.299-1.686-3.299-3.765c0-2.079 1.477-3.765 3.299-3.765s3.299 1.686 3.299 3.765z"></path>
<path fill="#f8d24e" style="fill: var(--color1, #f8d24e)" d="M35.811 28.235c0 2.079-1.688 3.765-3.769 3.765s-3.769-1.686-3.769-3.765c0-2.079 1.688-3.765 3.769-3.765s3.769 1.686 3.769 3.765z"></path>
<path fill="#f8d24e" style="fill: var(--color1, #f8d24e)" d="M43.35 23.529c0 2.079-1.688 3.765-3.769 3.765s-3.769-1.686-3.769-3.765c0-2.079 1.688-3.765 3.769-3.765s3.769 1.686 3.769 3.765z"></path>
<path fill="#f8d24e" style="fill: var(--color1, #f8d24e)" d="M52.775 17.882c0 2.079-1.688 3.765-3.769 3.765s-3.769-1.686-3.769-3.765c0-2.079 1.688-3.765 3.769-3.765s3.769 1.686 3.769 3.765z"></path>
<path fill="#f8d24e" style="fill: var(--color1, #f8d24e)" d="M60.313 13.176c0 2.079-1.688 3.765-3.769 3.765s-3.769-1.686-3.769-3.765c0-2.079 1.688-3.765 3.769-3.765s3.769 1.686 3.769 3.765z"></path>
<path fill="#f8d24e" style="fill: var(--color1, #f8d24e)" d="M20.732 27.294c0 2.079-1.688 3.765-3.769 3.765s-3.769-1.686-3.769-3.765c0-2.079 1.688-3.765 3.769-3.765s3.769 1.686 3.769 3.765z"></path>
<path fill="#f8d24e" style="fill: var(--color1, #f8d24e)" d="M28.272 22.588c0 2.079-1.688 3.765-3.769 3.765s-3.769-1.686-3.769-3.765c0-2.079 1.688-3.765 3.769-3.765s3.769 1.686 3.769 3.765z"></path>
<path fill="#f8d24e" style="fill: var(--color1, #f8d24e)" d="M37.696 16.941c0 2.079-1.688 3.765-3.769 3.765s-3.769-1.686-3.769-3.765c0-2.079 1.688-3.765 3.769-3.765s3.769 1.686 3.769 3.765z"></path>
<path fill="#f8d24e" style="fill: var(--color1, #f8d24e)" d="M45.235 12.235c0 2.079-1.688 3.765-3.769 3.765s-3.769-1.686-3.769-3.765c0-2.079 1.688-3.765 3.769-3.765s3.769 1.686 3.769 3.765z"></path>
</symbol>
<symbol id="icon-dots2-mobile" viewBox="0 0 81 32">
<path fill="#f8d24e" style="fill: var(--color1, #f8d24e)" d="M33.020 29.617c0 0.982-0.745 1.779-1.664 1.779s-1.664-0.796-1.664-1.779c0-0.982 0.745-1.779 1.664-1.779s1.664 0.796 1.664 1.779z"></path>
<path fill="#f8d24e" style="fill: var(--color1, #f8d24e)" d="M36.625 27.245c0 0.982-0.745 1.779-1.664 1.779s-1.664-0.796-1.664-1.779c0-0.982 0.745-1.779 1.664-1.779s1.664 0.796 1.664 1.779z"></path>
<path fill="#f8d24e" style="fill: var(--color1, #f8d24e)" d="M40.785 24.578c0 0.982-0.745 1.779-1.664 1.779s-1.664-0.796-1.664-1.779c0-0.982 0.745-1.779 1.664-1.779s1.664 0.796 1.664 1.779z"></path>
<path fill="#f8d24e" style="fill: var(--color1, #f8d24e)" d="M44.669 22.207c0 0.982-0.745 1.779-1.664 1.779s-1.664-0.796-1.664-1.779c0-0.982 0.745-1.779 1.664-1.779s1.664 0.796 1.664 1.779z"></path>
<path fill="#f8d24e" style="fill: var(--color1, #f8d24e)" d="M42.449 28.431c0 0.982-0.745 1.779-1.664 1.779s-1.664-0.796-1.664-1.779c0-0.982 0.745-1.779 1.664-1.779s1.664 0.796 1.664 1.779z"></path>
<path fill="#f8d24e" style="fill: var(--color1, #f8d24e)" d="M46.055 26.060c0 0.982-0.745 1.779-1.664 1.779s-1.664-0.796-1.664-1.779c0-0.982 0.745-1.779 1.664-1.779s1.664 0.796 1.664 1.779z"></path>
<path fill="#f8d24e" style="fill: var(--color1, #f8d24e)" d="M50.214 23.392c0 0.982-0.745 1.779-1.664 1.779s-1.664-0.796-1.664-1.779c0-0.982 0.745-1.779 1.664-1.779s1.664 0.796 1.664 1.779z"></path>
<path fill="#f8d24e" style="fill: var(--color1, #f8d24e)" d="M54.099 21.021c0 0.982-0.745 1.779-1.664 1.779s-1.664-0.796-1.664-1.779c0-0.982 0.745-1.779 1.664-1.779s1.664 0.796 1.664 1.779z"></path>
<path fill="#f8d24e" style="fill: var(--color1, #f8d24e)" d="M50.493 27.542c0 0.982-0.745 1.779-1.664 1.779s-1.664-0.796-1.664-1.779c0-0.982 0.745-1.779 1.664-1.779s1.664 0.796 1.664 1.779z"></path>
<path fill="#f8d24e" style="fill: var(--color1, #f8d24e)" d="M54.099 25.171c0 0.982-0.745 1.779-1.664 1.779s-1.664-0.796-1.664-1.779c0-0.982 0.745-1.779 1.664-1.779s1.664 0.796 1.664 1.779z"></path>
<path fill="#f8d24e" style="fill: var(--color1, #f8d24e)" d="M58.259 22.503c0 0.982-0.745 1.779-1.664 1.779s-1.664-0.796-1.664-1.779c0-0.982 0.745-1.779 1.664-1.779s1.664 0.796 1.664 1.779z"></path>
<path fill="#f8d24e" style="fill: var(--color1, #f8d24e)" d="M62.141 20.132c0 0.982-0.745 1.779-1.664 1.779s-1.664-0.796-1.664-1.779c0-0.982 0.745-1.779 1.664-1.779s1.664 0.796 1.664 1.779z"></path>
<path fill="#f8d24e" style="fill: var(--color1, #f8d24e)" d="M58.258 26.356c0 0.982-0.745 1.779-1.664 1.779s-1.664-0.796-1.664-1.779c0-0.982 0.745-1.779 1.664-1.779s1.664 0.796 1.664 1.779z"></path>
<path fill="#f8d24e" style="fill: var(--color1, #f8d24e)" d="M61.863 23.985c0 0.982-0.745 1.779-1.664 1.779s-1.664-0.796-1.664-1.779c0-0.982 0.745-1.779 1.664-1.779s1.664 0.796 1.664 1.779z"></path>
<path fill="#f8d24e" style="fill: var(--color1, #f8d24e)" d="M66.023 21.318c0 0.982-0.745 1.779-1.664 1.779s-1.664-0.796-1.664-1.779c0-0.982 0.745-1.779 1.664-1.779s1.664 0.796 1.664 1.779z"></path>
<path fill="#f8d24e" style="fill: var(--color1, #f8d24e)" d="M69.907 18.947c0 0.982-0.745 1.779-1.664 1.779s-1.664-0.796-1.664-1.779c0-0.982 0.745-1.779 1.664-1.779s1.664 0.796 1.664 1.779z"></path>
<path fill="#f8d24e" style="fill: var(--color1, #f8d24e)" d="M60.756 29.617c0 0.982-0.745 1.779-1.664 1.779s-1.664-0.796-1.664-1.779c0-0.982 0.745-1.779 1.664-1.779s1.664 0.796 1.664 1.779z"></path>
<path fill="#f8d24e" style="fill: var(--color1, #f8d24e)" d="M64.362 27.245c0 0.982-0.745 1.779-1.664 1.779s-1.664-0.796-1.664-1.779c0-0.982 0.745-1.779 1.664-1.779s1.664 0.796 1.664 1.779z"></path>
<path fill="#f8d24e" style="fill: var(--color1, #f8d24e)" d="M69.354 29.913c0 0.982-0.745 1.779-1.664 1.779s-1.664-0.796-1.664-1.779c0-0.982 0.745-1.779 1.664-1.779s1.664 0.796 1.664 1.779z"></path>
<path fill="#f8d24e" style="fill: var(--color1, #f8d24e)" d="M68.522 24.578c0 0.982-0.745 1.779-1.664 1.779s-1.664-0.796-1.664-1.779c0-0.982 0.745-1.779 1.664-1.779s1.664 0.796 1.664 1.779z"></path>
<path fill="#f8d24e" style="fill: var(--color1, #f8d24e)" d="M73.514 27.245c0 0.982-0.745 1.779-1.664 1.779s-1.664-0.796-1.664-1.779c0-0.982 0.745-1.779 1.664-1.779s1.664 0.796 1.664 1.779z"></path>
<path fill="#f8d24e" style="fill: var(--color1, #f8d24e)" d="M77.398 29.913c0 0.982-0.745 1.779-1.664 1.779s-1.664-0.796-1.664-1.779c0-0.982 0.745-1.779 1.664-1.779s1.664 0.796 1.664 1.779z"></path>
<path fill="#f8d24e" style="fill: var(--color1, #f8d24e)" d="M72.405 22.207c0 0.982-0.745 1.779-1.664 1.779s-1.664-0.796-1.664-1.779c0-0.982 0.745-1.779 1.664-1.779s1.664 0.796 1.664 1.779z"></path>
<path fill="#f8d24e" style="fill: var(--color1, #f8d24e)" d="M77.398 24.874c0 0.982-0.745 1.779-1.664 1.779s-1.664-0.796-1.664-1.779c0-0.982 0.745-1.779 1.664-1.779s1.664 0.796 1.664 1.779z"></path>
<path fill="#f8d24e" style="fill: var(--color1, #f8d24e)" d="M81.281 27.542c0 0.982-0.745 1.779-1.664 1.779s-1.664-0.796-1.664-1.779c0-0.982 0.745-1.779 1.664-1.779s1.664 0.796 1.664 1.779z"></path>
<path fill="#f8d24e" style="fill: var(--color1, #f8d24e)" d="M16.102 10.055c0 0.982-0.745 1.779-1.664 1.779s-1.664-0.796-1.664-1.779c0-0.982 0.745-1.779 1.664-1.779s1.664 0.796 1.664 1.779z"></path>
<path fill="#f8d24e" style="fill: var(--color1, #f8d24e)" d="M19.707 7.684c0 0.982-0.745 1.779-1.664 1.779s-1.664-0.796-1.664-1.779c0-0.982 0.745-1.779 1.664-1.779s1.664 0.796 1.664 1.779z"></path>
<path fill="#f8d24e" style="fill: var(--color1, #f8d24e)" d="M23.868 5.016c0 0.982-0.745 1.779-1.664 1.779s-1.664-0.796-1.664-1.779c0-0.982 0.745-1.779 1.664-1.779s1.664 0.796 1.664 1.779z"></path>
<path fill="#f8d24e" style="fill: var(--color1, #f8d24e)" d="M27.75 2.645c0 0.982-0.745 1.779-1.664 1.779s-1.664-0.796-1.664-1.779c0-0.982 0.745-1.779 1.664-1.779s1.664 0.796 1.664 1.779z"></path>
<path fill="#f8d24e" style="fill: var(--color1, #f8d24e)" d="M9.167 9.758c0 0.982-0.745 1.779-1.664 1.779s-1.664-0.796-1.664-1.779c0-0.982 0.745-1.779 1.664-1.779s1.664 0.796 1.664 1.779z"></path>
<path fill="#f8d24e" style="fill: var(--color1, #f8d24e)" d="M12.772 7.387c0 0.982-0.745 1.779-1.664 1.779s-1.664-0.796-1.664-1.779c0-0.982 0.745-1.779 1.664-1.779s1.664 0.796 1.664 1.779z"></path>
<path fill="#f8d24e" style="fill: var(--color1, #f8d24e)" d="M16.932 4.72c0 0.982-0.745 1.779-1.664 1.779s-1.664-0.796-1.664-1.779c0-0.982 0.745-1.779 1.664-1.779s1.664 0.796 1.664 1.779z"></path>
<path fill="#f8d24e" style="fill: var(--color1, #f8d24e)" d="M20.815 2.349c0 0.982-0.745 1.779-1.664 1.779s-1.664-0.796-1.664-1.779c0-0.982 0.745-1.779 1.664-1.779s1.664 0.796 1.664 1.779z"></path>
<path fill="#f8d24e" style="fill: var(--color1, #f8d24e)" d="M24.699 29.617c0 0.982-0.745 1.779-1.664 1.779s-1.664-0.796-1.664-1.779c0-0.982 0.745-1.779 1.664-1.779s1.664 0.796 1.664 1.779z"></path>
<path fill="#f8d24e" style="fill: var(--color1, #f8d24e)" d="M28.304 27.245c0 0.982-0.745 1.779-1.664 1.779s-1.664-0.796-1.664-1.779c0-0.982 0.745-1.779 1.664-1.779s1.664 0.796 1.664 1.779z"></path>
<path fill="#f8d24e" style="fill: var(--color1, #f8d24e)" d="M32.464 24.578c0 0.982-0.745 1.779-1.664 1.779s-1.664-0.796-1.664-1.779c0-0.982 0.745-1.779 1.664-1.779s1.664 0.796 1.664 1.779z"></path>
<path fill="#f8d24e" style="fill: var(--color1, #f8d24e)" d="M36.348 22.207c0 0.982-0.745 1.779-1.664 1.779s-1.664-0.796-1.664-1.779c0-0.982 0.745-1.779 1.664-1.779s1.664 0.796 1.664 1.779z"></path>
<path fill="#f8d24e" style="fill: var(--color1, #f8d24e)" d="M20.261 27.839c0 0.982-0.745 1.779-1.664 1.779s-1.664-0.796-1.664-1.779c0-0.982 0.745-1.779 1.664-1.779s1.664 0.796 1.664 1.779z"></path>
<path fill="#f8d24e" style="fill: var(--color1, #f8d24e)" d="M23.867 25.468c0 0.982-0.745 1.779-1.664 1.779s-1.664-0.796-1.664-1.779c0-0.982 0.745-1.779 1.664-1.779s1.664 0.796 1.664 1.779z"></path>
<path fill="#f8d24e" style="fill: var(--color1, #f8d24e)" d="M28.027 22.799c0 0.982-0.745 1.779-1.664 1.779s-1.664-0.796-1.664-1.779c0-0.982 0.745-1.779 1.664-1.779s1.664 0.796 1.664 1.779z"></path>
<path fill="#f8d24e" style="fill: var(--color1, #f8d24e)" d="M31.91 20.429c0 0.982-0.745 1.779-1.664 1.779s-1.664-0.796-1.664-1.779c0-0.982 0.745-1.779 1.664-1.779s1.664 0.796 1.664 1.779z"></path>
<path fill="#f8d24e" style="fill: var(--color1, #f8d24e)" d="M21.926 21.614c0 0.982-0.745 1.779-1.664 1.779s-1.664-0.796-1.664-1.779c0-0.982 0.745-1.779 1.664-1.779s1.664 0.796 1.664 1.779z"></path>
<path fill="#f8d24e" style="fill: var(--color1, #f8d24e)" d="M25.531 19.243c0 0.982-0.745 1.779-1.664 1.779s-1.664-0.796-1.664-1.779c0-0.982 0.745-1.779 1.664-1.779s1.664 0.796 1.664 1.779z"></path>
<path fill="#f8d24e" style="fill: var(--color1, #f8d24e)" d="M29.692 16.575c0 0.982-0.745 1.779-1.664 1.779s-1.664-0.796-1.664-1.779c0-0.982 0.745-1.779 1.664-1.779s1.664 0.796 1.664 1.779z"></path>
<path fill="#f8d24e" style="fill: var(--color1, #f8d24e)" d="M33.574 14.204c0 0.982-0.745 1.779-1.664 1.779s-1.664-0.796-1.664-1.779c0-0.982 0.745-1.779 1.664-1.779s1.664 0.796 1.664 1.779z"></path>
<path fill="#f8d24e" style="fill: var(--color1, #f8d24e)" d="M21.926 11.24c0 0.982-0.745 1.779-1.664 1.779s-1.664-0.796-1.664-1.779c0-0.982 0.745-1.779 1.664-1.779s1.664 0.796 1.664 1.779z"></path>
<path fill="#f8d24e" style="fill: var(--color1, #f8d24e)" d="M25.531 8.869c0 0.982-0.745 1.779-1.664 1.779s-1.664-0.796-1.664-1.779c0-0.982 0.745-1.779 1.664-1.779s1.664 0.796 1.664 1.779z"></path>
<path fill="#f8d24e" style="fill: var(--color1, #f8d24e)" d="M29.692 6.202c0 0.982-0.745 1.779-1.664 1.779s-1.664-0.796-1.664-1.779c0-0.982 0.745-1.779 1.664-1.779s1.664 0.796 1.664 1.779z"></path>
<path fill="#f8d24e" style="fill: var(--color1, #f8d24e)" d="M33.574 3.83c0 0.982-0.745 1.779-1.664 1.779s-1.664-0.796-1.664-1.779c0-0.982 0.745-1.779 1.664-1.779s1.664 0.796 1.664 1.779z"></path>
<path fill="#f8d24e" style="fill: var(--color1, #f8d24e)" d="M21.093 16.872c0 0.982-0.745 1.779-1.664 1.779s-1.664-0.796-1.664-1.779c0-0.982 0.745-1.779 1.664-1.779s1.664 0.796 1.664 1.779z"></path>
<path fill="#f8d24e" style="fill: var(--color1, #f8d24e)" d="M24.7 14.5c0 0.982-0.745 1.779-1.664 1.779s-1.664-0.796-1.664-1.779c0-0.982 0.745-1.779 1.664-1.779s1.664 0.796 1.664 1.779z"></path>
<path fill="#f8d24e" style="fill: var(--color1, #f8d24e)" d="M28.859 11.834c0 0.982-0.745 1.779-1.664 1.779s-1.664-0.796-1.664-1.779c0-0.982 0.745-1.779 1.664-1.779s1.664 0.796 1.664 1.779z"></path>
<path fill="#f8d24e" style="fill: var(--color1, #f8d24e)" d="M32.742 9.462c0 0.982-0.745 1.779-1.664 1.779s-1.664-0.796-1.664-1.779c0-0.982 0.745-1.779 1.664-1.779s1.664 0.796 1.664 1.779z"></path>
<path fill="#f8d24e" style="fill: var(--color1, #f8d24e)" d="M3.62 8.276c0 0.982-0.745 1.779-1.664 1.779s-1.664-0.796-1.664-1.779c0-0.982 0.745-1.779 1.664-1.779s1.664 0.796 1.664 1.779z"></path>
<path fill="#f8d24e" style="fill: var(--color1, #f8d24e)" d="M7.226 5.905c0 0.982-0.745 1.779-1.664 1.779s-1.664-0.796-1.664-1.779c0-0.982 0.745-1.779 1.664-1.779s1.664 0.796 1.664 1.779z"></path>
<path fill="#f8d24e" style="fill: var(--color1, #f8d24e)" d="M11.386 3.238c0 0.982-0.745 1.779-1.664 1.779s-1.664-0.796-1.664-1.779c0-0.982 0.745-1.779 1.664-1.779s1.664 0.796 1.664 1.779z"></path>
<path fill="#f8d24e" style="fill: var(--color1, #f8d24e)" d="M9.444 10.054c0.92 0 1.664-0.796 1.664-1.778s-0.744-1.779-1.664-1.779c-0.919 0-1.664 0.796-1.664 1.779s0.745 1.778 1.664 1.778z"></path>
</symbol>
<symbol id="icon-dots2-tablet" viewBox="0 0 85 32">
<path fill="#f8d24e" style="fill: var(--color1, #f8d24e)" d="M34.717 29.57c0 1.021-0.832 1.849-1.857 1.849s-1.857-0.828-1.857-1.849c0-1.021 0.832-1.849 1.857-1.849s1.857 0.828 1.857 1.849z"></path>
<path fill="#f8d24e" style="fill: var(--color1, #f8d24e)" d="M38.432 27.258c0 1.021-0.832 1.849-1.857 1.849s-1.857-0.828-1.857-1.849c0-1.021 0.832-1.849 1.857-1.849s1.857 0.828 1.857 1.849z"></path>
<path fill="#f8d24e" style="fill: var(--color1, #f8d24e)" d="M43.076 24.485c0 1.021-0.832 1.849-1.857 1.849s-1.857-0.828-1.857-1.849c0-1.021 0.832-1.849 1.857-1.849s1.857 0.828 1.857 1.849z"></path>
<path fill="#f8d24e" style="fill: var(--color1, #f8d24e)" d="M46.791 22.173c0 1.021-0.832 1.849-1.857 1.849s-1.857-0.828-1.857-1.849c0-1.021 0.832-1.849 1.857-1.849s1.857 0.828 1.857 1.849z"></path>
<path fill="#f8d24e" style="fill: var(--color1, #f8d24e)" d="M44.469 28.646c0 1.021-0.832 1.849-1.857 1.849s-1.857-0.828-1.857-1.849c0-1.021 0.832-1.849 1.857-1.849s1.857 0.828 1.857 1.849z"></path>
<path fill="#f8d24e" style="fill: var(--color1, #f8d24e)" d="M48.184 26.334c0 1.021-0.832 1.849-1.857 1.849s-1.857-0.828-1.857-1.849c0-1.021 0.832-1.849 1.857-1.849s1.857 0.828 1.857 1.849z"></path>
<path fill="#f8d24e" style="fill: var(--color1, #f8d24e)" d="M52.828 23.56c0 1.021-0.832 1.849-1.857 1.849s-1.857-0.828-1.857-1.849c0-1.021 0.832-1.849 1.857-1.849s1.857 0.828 1.857 1.849z"></path>
<path fill="#f8d24e" style="fill: var(--color1, #f8d24e)" d="M56.543 21.248c0 1.021-0.832 1.849-1.857 1.849s-1.857-0.828-1.857-1.849c0-1.021 0.832-1.849 1.857-1.849s1.857 0.828 1.857 1.849z"></path>
<path fill="#f8d24e" style="fill: var(--color1, #f8d24e)" d="M52.828 27.721c0 1.021-0.832 1.849-1.857 1.849s-1.857-0.828-1.857-1.849c0-1.021 0.832-1.849 1.857-1.849s1.857 0.828 1.857 1.849z"></path>
<path fill="#f8d24e" style="fill: var(--color1, #f8d24e)" d="M56.543 25.409c0 1.021-0.832 1.849-1.857 1.849s-1.857-0.828-1.857-1.849c0-1.021 0.832-1.849 1.857-1.849s1.857 0.828 1.857 1.849z"></path>
<path fill="#f8d24e" style="fill: var(--color1, #f8d24e)" d="M61.186 22.635c0 1.021-0.832 1.849-1.857 1.849s-1.857-0.828-1.857-1.849c0-1.021 0.832-1.849 1.857-1.849s1.857 0.828 1.857 1.849z"></path>
<path fill="#f8d24e" style="fill: var(--color1, #f8d24e)" d="M64.902 20.323c0 1.021-0.832 1.849-1.857 1.849s-1.857-0.828-1.857-1.849c0-1.021 0.832-1.849 1.857-1.849s1.857 0.828 1.857 1.849z"></path>
<path fill="#f8d24e" style="fill: var(--color1, #f8d24e)" d="M61.186 26.334c0 1.021-0.832 1.849-1.857 1.849s-1.857-0.828-1.857-1.849c0-1.021 0.832-1.849 1.857-1.849s1.857 0.828 1.857 1.849z"></path>
<path fill="#f8d24e" style="fill: var(--color1, #f8d24e)" d="M64.902 24.022c0 1.021-0.832 1.849-1.857 1.849s-1.857-0.828-1.857-1.849c0-1.021 0.832-1.849 1.857-1.849s1.857 0.828 1.857 1.849z"></path>
<path fill="#f8d24e" style="fill: var(--color1, #f8d24e)" d="M69.545 21.248c0 1.021-0.832 1.849-1.857 1.849s-1.857-0.828-1.857-1.849c0-1.021 0.832-1.849 1.857-1.849s1.857 0.828 1.857 1.849z"></path>
<path fill="#f8d24e" style="fill: var(--color1, #f8d24e)" d="M73.26 18.936c0 1.021-0.832 1.849-1.857 1.849s-1.857-0.828-1.857-1.849c0-1.021 0.832-1.849 1.857-1.849s1.857 0.828 1.857 1.849z"></path>
<path fill="#f8d24e" style="fill: var(--color1, #f8d24e)" d="M63.508 29.57c0 1.021-0.832 1.849-1.857 1.849s-1.857-0.828-1.857-1.849c0-1.021 0.832-1.849 1.857-1.849s1.857 0.828 1.857 1.849z"></path>
<path fill="#f8d24e" style="fill: var(--color1, #f8d24e)" d="M67.223 27.258c0 1.021-0.832 1.849-1.857 1.849s-1.857-0.828-1.857-1.849c0-1.021 0.832-1.849 1.857-1.849s1.857 0.828 1.857 1.849z"></path>
<path fill="#f8d24e" style="fill: var(--color1, #f8d24e)" d="M72.332 30.033c0 1.021-0.832 1.849-1.857 1.849s-1.857-0.828-1.857-1.849c0-1.021 0.832-1.849 1.857-1.849s1.857 0.828 1.857 1.849z"></path>
<path fill="#f8d24e" style="fill: var(--color1, #f8d24e)" d="M71.867 24.485c0 1.021-0.832 1.849-1.857 1.849s-1.857-0.828-1.857-1.849c0-1.021 0.832-1.849 1.857-1.849s1.857 0.828 1.857 1.849z"></path>
<path fill="#f8d24e" style="fill: var(--color1, #f8d24e)" d="M76.975 27.258c0 1.021-0.832 1.849-1.857 1.849s-1.857-0.828-1.857-1.849c0-1.021 0.832-1.849 1.857-1.849s1.857 0.828 1.857 1.849z"></path>
<path fill="#f8d24e" style="fill: var(--color1, #f8d24e)" d="M81.154 30.033c0 1.021-0.832 1.849-1.857 1.849s-1.857-0.828-1.857-1.849c0-1.021 0.832-1.849 1.857-1.849s1.857 0.828 1.857 1.849z"></path>
<path fill="#f8d24e" style="fill: var(--color1, #f8d24e)" d="M75.582 22.173c0 1.021-0.832 1.849-1.857 1.849s-1.857-0.828-1.857-1.849c0-1.021 0.832-1.849 1.857-1.849s1.857 0.828 1.857 1.849z"></path>
<path fill="#f8d24e" style="fill: var(--color1, #f8d24e)" d="M81.154 24.947c0 1.021-0.832 1.849-1.857 1.849s-1.857-0.828-1.857-1.849c0-1.021 0.832-1.849 1.857-1.849s1.857 0.828 1.857 1.849z"></path>
<path fill="#f8d24e" style="fill: var(--color1, #f8d24e)" d="M84.87 27.721c0 1.021-0.832 1.849-1.857 1.849s-1.857-0.828-1.857-1.849c0-1.021 0.832-1.849 1.857-1.849s1.857 0.828 1.857 1.849z"></path>
<path fill="#f8d24e" style="fill: var(--color1, #f8d24e)" d="M17.071 10.151c0 1.021-0.832 1.849-1.857 1.849s-1.857-0.828-1.857-1.849c0-1.021 0.832-1.849 1.857-1.849s1.857 0.828 1.857 1.849z"></path>
<path fill="#f8d24e" style="fill: var(--color1, #f8d24e)" d="M20.786 7.839c0 1.021-0.832 1.849-1.857 1.849s-1.857-0.828-1.857-1.849c0-1.021 0.832-1.849 1.857-1.849s1.857 0.828 1.857 1.849z"></path>
<path fill="#f8d24e" style="fill: var(--color1, #f8d24e)" d="M25.43 5.065c0 1.021-0.832 1.849-1.857 1.849s-1.857-0.828-1.857-1.849c0-1.021 0.832-1.849 1.857-1.849s1.857 0.828 1.857 1.849z"></path>
<path fill="#f8d24e" style="fill: var(--color1, #f8d24e)" d="M29.145 2.753c0 1.021-0.832 1.85-1.857 1.85s-1.857-0.828-1.857-1.849c0-1.021 0.832-1.849 1.857-1.849s1.857 0.828 1.857 1.849z"></path>
<path fill="#f8d24e" style="fill: var(--color1, #f8d24e)" d="M9.641 9.689c0 1.021-0.832 1.85-1.857 1.85s-1.857-0.828-1.857-1.849c0-1.021 0.832-1.849 1.857-1.849s1.857 0.828 1.857 1.849z"></path>
<path fill="#f8d24e" style="fill: var(--color1, #f8d24e)" d="M13.356 7.377c0 1.021-0.832 1.849-1.857 1.849s-1.857-0.828-1.857-1.849c0-1.021 0.832-1.849 1.857-1.849s1.857 0.828 1.857 1.849z"></path>
<path fill="#f8d24e" style="fill: var(--color1, #f8d24e)" d="M18 4.602c0 1.021-0.832 1.849-1.857 1.849s-1.857-0.828-1.857-1.849c0-1.021 0.832-1.849 1.857-1.849s1.857 0.828 1.857 1.849z"></path>
<path fill="#f8d24e" style="fill: var(--color1, #f8d24e)" d="M21.715 2.291c0 1.021-0.832 1.85-1.857 1.85s-1.857-0.828-1.857-1.849c0-1.021 0.832-1.849 1.857-1.849s1.857 0.828 1.857 1.849z"></path>
<path fill="#f8d24e" style="fill: var(--color1, #f8d24e)" d="M25.894 29.57c0 1.021-0.832 1.849-1.857 1.849s-1.857-0.828-1.857-1.849c0-1.021 0.832-1.849 1.857-1.849s1.857 0.828 1.857 1.849z"></path>
<path fill="#f8d24e" style="fill: var(--color1, #f8d24e)" d="M29.609 27.258c0 1.021-0.832 1.849-1.857 1.849s-1.857-0.828-1.857-1.849c0-1.021 0.832-1.849 1.857-1.849s1.857 0.828 1.857 1.849z"></path>
<path fill="#f8d24e" style="fill: var(--color1, #f8d24e)" d="M34.253 24.485c0 1.021-0.832 1.849-1.857 1.849s-1.857-0.828-1.857-1.849c0-1.021 0.832-1.849 1.857-1.849s1.857 0.828 1.857 1.849z"></path>
<path fill="#f8d24e" style="fill: var(--color1, #f8d24e)" d="M37.968 22.173c0 1.021-0.832 1.849-1.857 1.849s-1.857-0.828-1.857-1.849c0-1.021 0.832-1.849 1.857-1.849s1.857 0.828 1.857 1.849z"></path>
<path fill="#f8d24e" style="fill: var(--color1, #f8d24e)" d="M21.25 28.183c0 1.021-0.832 1.849-1.857 1.849s-1.857-0.828-1.857-1.849c0-1.021 0.832-1.849 1.857-1.849s1.857 0.828 1.857 1.849z"></path>
<path fill="#f8d24e" style="fill: var(--color1, #f8d24e)" d="M24.966 25.871c0 1.021-0.832 1.849-1.857 1.849s-1.857-0.828-1.857-1.849c0-1.021 0.832-1.849 1.857-1.849s1.857 0.828 1.857 1.849z"></path>
<path fill="#f8d24e" style="fill: var(--color1, #f8d24e)" d="M29.609 23.098c0 1.021-0.832 1.849-1.857 1.849s-1.857-0.828-1.857-1.849c0-1.021 0.832-1.849 1.857-1.849s1.857 0.828 1.857 1.849z"></path>
<path fill="#f8d24e" style="fill: var(--color1, #f8d24e)" d="M33.324 20.786c0 1.021-0.832 1.849-1.857 1.849s-1.857-0.828-1.857-1.849c0-1.021 0.832-1.849 1.857-1.849s1.857 0.828 1.857 1.849z"></path>
<path fill="#f8d24e" style="fill: var(--color1, #f8d24e)" d="M23.108 21.71c0 1.021-0.832 1.849-1.857 1.849s-1.857-0.828-1.857-1.849c0-1.021 0.832-1.849 1.857-1.849s1.857 0.828 1.857 1.849z"></path>
<path fill="#f8d24e" style="fill: var(--color1, #f8d24e)" d="M26.823 19.398c0 1.021-0.832 1.849-1.857 1.849s-1.857-0.828-1.857-1.849c0-1.021 0.832-1.849 1.857-1.849s1.857 0.828 1.857 1.849z"></path>
<path fill="#f8d24e" style="fill: var(--color1, #f8d24e)" d="M31.467 16.624c0 1.021-0.832 1.849-1.857 1.849s-1.857-0.828-1.857-1.849c0-1.021 0.832-1.849 1.857-1.849s1.857 0.828 1.857 1.849z"></path>
<path fill="#f8d24e" style="fill: var(--color1, #f8d24e)" d="M35.181 14.312c0 1.021-0.832 1.849-1.857 1.849s-1.857-0.828-1.857-1.849c0-1.021 0.832-1.849 1.857-1.849s1.857 0.828 1.857 1.849z"></path>
<path fill="#f8d24e" style="fill: var(--color1, #f8d24e)" d="M23.108 11.076c0 1.021-0.832 1.849-1.857 1.849s-1.857-0.828-1.857-1.849c0-1.021 0.832-1.849 1.857-1.849s1.857 0.828 1.857 1.849z"></path>
<path fill="#f8d24e" style="fill: var(--color1, #f8d24e)" d="M26.823 8.764c0 1.021-0.832 1.849-1.857 1.849s-1.857-0.828-1.857-1.849c0-1.021 0.832-1.849 1.857-1.849s1.857 0.828 1.857 1.849z"></path>
<path fill="#f8d24e" style="fill: var(--color1, #f8d24e)" d="M31.467 5.99c0 1.021-0.832 1.849-1.857 1.849s-1.857-0.828-1.857-1.849c0-1.021 0.832-1.849 1.857-1.849s1.857 0.828 1.857 1.849z"></path>
<path fill="#f8d24e" style="fill: var(--color1, #f8d24e)" d="M35.181 3.678c0 1.021-0.832 1.849-1.857 1.849s-1.857-0.828-1.857-1.849c0-1.021 0.832-1.849 1.857-1.849s1.857 0.828 1.857 1.849z"></path>
<path fill="#f8d24e" style="fill: var(--color1, #f8d24e)" d="M22.179 17.087c0 1.021-0.832 1.849-1.857 1.849s-1.857-0.828-1.857-1.849c0-1.021 0.832-1.849 1.857-1.849s1.857 0.828 1.857 1.849z"></path>
<path fill="#f8d24e" style="fill: var(--color1, #f8d24e)" d="M25.894 14.775c0 1.021-0.832 1.85-1.857 1.85s-1.857-0.828-1.857-1.849c0-1.021 0.832-1.849 1.857-1.849s1.857 0.828 1.857 1.849z"></path>
<path fill="#f8d24e" style="fill: var(--color1, #f8d24e)" d="M30.538 12c0 1.021-0.832 1.849-1.857 1.849s-1.857-0.828-1.857-1.849c0-1.021 0.832-1.849 1.857-1.849s1.857 0.828 1.857 1.849z"></path>
<path fill="#f8d24e" style="fill: var(--color1, #f8d24e)" d="M34.253 9.689c0 1.021-0.832 1.85-1.857 1.85s-1.857-0.828-1.857-1.849c0-1.021 0.832-1.849 1.857-1.849s1.857 0.828 1.857 1.849z"></path>
<path fill="#f8d24e" style="fill: var(--color1, #f8d24e)" d="M3.604 8.301c0 1.021-0.728 1.85-1.625 1.85s-1.625-0.828-1.625-1.849c0-1.021 0.728-1.849 1.625-1.849s1.625 0.828 1.625 1.849z"></path>
<path fill="#f8d24e" style="fill: var(--color1, #f8d24e)" d="M7.319 5.99c0 1.021-0.728 1.849-1.625 1.849s-1.625-0.828-1.625-1.849c0-1.021 0.728-1.849 1.625-1.849s1.625 0.828 1.625 1.849z"></path>
<path fill="#f8d24e" style="fill: var(--color1, #f8d24e)" d="M11.963 3.215c0 1.021-0.728 1.85-1.626 1.85s-1.626-0.828-1.626-1.849c0-1.021 0.728-1.849 1.626-1.849s1.626 0.828 1.626 1.849z"></path>
<path fill="#f8d24e" style="fill: var(--color1, #f8d24e)" d="M9.874 10.151c0.897 0 1.625-0.828 1.625-1.849s-0.728-1.849-1.626-1.849-1.625 0.828-1.625 1.849c0 1.022 0.728 1.849 1.625 1.849z"></path>
</symbol>
<symbol id="icon-dots-desktop" viewBox="0 0 100 32">
<path fill="#f8d24e" style="fill: var(--color1, #f8d24e)" d="M45.81 25.797c0 0.287-0.219 0.52-0.488 0.52s-0.488-0.233-0.488-0.52c0-0.287 0.219-0.52 0.488-0.52s0.488 0.233 0.488 0.52z"></path>
<path fill="#f8d24e" style="fill: var(--color1, #f8d24e)" d="M46.949 25.104c0 0.287-0.219 0.52-0.488 0.52s-0.488-0.233-0.488-0.52c0-0.287 0.219-0.52 0.488-0.52s0.488 0.233 0.488 0.52z"></path>
<path fill="#f8d24e" style="fill: var(--color1, #f8d24e)" d="M44.915 27.705c0 0.287-0.219 0.52-0.488 0.52s-0.488-0.233-0.488-0.52c0-0.287 0.219-0.52 0.488-0.52s0.488 0.233 0.488 0.52z"></path>
<path fill="#f8d24e" style="fill: var(--color1, #f8d24e)" d="M45.972 27.011c0 0.287-0.219 0.52-0.488 0.52s-0.488-0.233-0.488-0.52c0-0.287 0.219-0.52 0.488-0.52s0.488 0.233 0.488 0.52z"></path>
<path fill="#f8d24e" style="fill: var(--color1, #f8d24e)" d="M47.193 26.231c0 0.287-0.219 0.52-0.488 0.52s-0.488-0.233-0.488-0.52c0-0.287 0.219-0.52 0.488-0.52s0.488 0.233 0.488 0.52z"></path>
<path fill="#f8d24e" style="fill: var(--color1, #f8d24e)" d="M48.332 25.537c0 0.287-0.219 0.52-0.488 0.52s-0.488-0.233-0.488-0.52c0-0.287 0.219-0.52 0.488-0.52s0.488 0.233 0.488 0.52z"></path>
<path fill="#f8d24e" style="fill: var(--color1, #f8d24e)" d="M46.705 27.792c0 0.287-0.219 0.52-0.488 0.52s-0.488-0.233-0.488-0.52c0-0.287 0.219-0.52 0.488-0.52s0.488 0.233 0.488 0.52z"></path>
<path fill="#f8d24e" style="fill: var(--color1, #f8d24e)" d="M47.762 27.098c0 0.287-0.219 0.52-0.488 0.52s-0.488-0.233-0.488-0.52c0-0.287 0.219-0.52 0.488-0.52s0.488 0.233 0.488 0.52z"></path>
<path fill="#f8d24e" style="fill: var(--color1, #f8d24e)" d="M48.983 26.318c0 0.287-0.219 0.52-0.488 0.52s-0.488-0.233-0.488-0.52c0-0.287 0.219-0.52 0.488-0.52s0.488 0.233 0.488 0.52z"></path>
<path fill="#f8d24e" style="fill: var(--color1, #f8d24e)" d="M50.122 25.624c0 0.287-0.219 0.52-0.488 0.52s-0.488-0.233-0.488-0.52c0-0.287 0.219-0.52 0.488-0.52s0.488 0.233 0.488 0.52z"></path>
<path fill="#f8d24e" style="fill: var(--color1, #f8d24e)" d="M48.82 27.792c0 0.287-0.219 0.52-0.488 0.52s-0.488-0.233-0.488-0.52c0-0.287 0.219-0.52 0.488-0.52s0.488 0.233 0.488 0.52z"></path>
<path fill="#f8d24e" style="fill: var(--color1, #f8d24e)" d="M49.878 27.098c0 0.287-0.219 0.52-0.488 0.52s-0.488-0.233-0.488-0.52c0-0.287 0.219-0.52 0.488-0.52s0.488 0.233 0.488 0.52z"></path>
<path fill="#f8d24e" style="fill: var(--color1, #f8d24e)" d="M51.098 26.318c0 0.287-0.219 0.52-0.488 0.52s-0.488-0.233-0.488-0.52c0-0.287 0.219-0.52 0.488-0.52s0.488 0.233 0.488 0.52z"></path>
<path fill="#f8d24e" style="fill: var(--color1, #f8d24e)" d="M52.238 25.624c0 0.287-0.219 0.52-0.488 0.52s-0.488-0.233-0.488-0.52c0-0.287 0.219-0.52 0.488-0.52s0.488 0.233 0.488 0.52z"></path>
<path fill="#f8d24e" style="fill: var(--color1, #f8d24e)" d="M50.61 27.705c0 0.287-0.219 0.52-0.488 0.52s-0.488-0.233-0.488-0.52c0-0.287 0.219-0.52 0.488-0.52s0.488 0.233 0.488 0.52z"></path>
<path fill="#f8d24e" style="fill: var(--color1, #f8d24e)" d="M51.668 27.011c0 0.287-0.219 0.52-0.488 0.52s-0.488-0.233-0.488-0.52c0-0.287 0.219-0.52 0.488-0.52s0.488 0.233 0.488 0.52z"></path>
<path fill="#f8d24e" style="fill: var(--color1, #f8d24e)" d="M52.889 26.231c0 0.287-0.219 0.52-0.488 0.52s-0.488-0.233-0.488-0.52c0-0.287 0.219-0.52 0.488-0.52s0.488 0.233 0.488 0.52z"></path>
<path fill="#f8d24e" style="fill: var(--color1, #f8d24e)" d="M54.028 25.537c0 0.287-0.219 0.52-0.488 0.52s-0.488-0.233-0.488-0.52c0-0.287 0.219-0.52 0.488-0.52s0.488 0.233 0.488 0.52z"></path>
<path fill="#f8d24e" style="fill: var(--color1, #f8d24e)" d="M52.644 27.618c0 0.287-0.219 0.52-0.488 0.52s-0.488-0.233-0.488-0.52c0-0.287 0.219-0.52 0.488-0.52s0.488 0.233 0.488 0.52z"></path>
<path fill="#f8d24e" style="fill: var(--color1, #f8d24e)" d="M53.702 26.925c0 0.287-0.219 0.52-0.488 0.52s-0.488-0.233-0.488-0.52c0-0.287 0.219-0.52 0.488-0.52s0.488 0.233 0.488 0.52z"></path>
<path fill="#f8d24e" style="fill: var(--color1, #f8d24e)" d="M54.923 26.144c0 0.287-0.219 0.52-0.488 0.52s-0.488-0.233-0.488-0.52c0-0.287 0.219-0.52 0.488-0.52s0.488 0.233 0.488 0.52z"></path>
<path fill="#f8d24e" style="fill: var(--color1, #f8d24e)" d="M56.062 25.45c0 0.287-0.219 0.52-0.488 0.52s-0.488-0.233-0.488-0.52c0-0.287 0.219-0.52 0.488-0.52s0.488 0.233 0.488 0.52z"></path>
<path fill="#f8d24e" style="fill: var(--color1, #f8d24e)" d="M54.516 25.364c0 0.287-0.219 0.52-0.488 0.52s-0.488-0.233-0.488-0.52c0-0.287 0.219-0.52 0.488-0.52s0.488 0.233 0.488 0.52z"></path>
<path fill="#f8d24e" style="fill: var(--color1, #f8d24e)" d="M55.574 24.67c0 0.287-0.219 0.52-0.488 0.52s-0.488-0.233-0.488-0.52c0-0.287 0.219-0.52 0.488-0.52s0.488 0.233 0.488 0.52z"></path>
<path fill="#f8d24e" style="fill: var(--color1, #f8d24e)" d="M56.794 23.889c0 0.287-0.219 0.52-0.488 0.52s-0.488-0.233-0.488-0.52c0-0.287 0.219-0.52 0.488-0.52s0.488 0.233 0.488 0.52z"></path>
<path fill="#f8d24e" style="fill: var(--color1, #f8d24e)" d="M57.933 23.196c0 0.287-0.219 0.52-0.488 0.52s-0.488-0.233-0.488-0.52c0-0.287 0.219-0.52 0.488-0.52s0.488 0.233 0.488 0.52z"></path>
</symbol>
</defs>
</svg>
